<svg id="Layer_1" data-name="Layer 1" xmlns="http://www.w3.org/2000/svg" viewBox="0 0 500 500"><defs><style>.cls-1{fill:#009245;}.cls-2{fill:#f15a24;}.cls-3{fill:#ed1c24;}.cls-4{fill:#f7931e;}.cls-5{fill:#fcb721;}</style></defs><title>cloudberry</title><path class="cls-1" d="M284.51,112.09c-20.43-45.23,70-89,138.6-27.72-70,1.46-91.91,27.72-101,46C308.58,157.88,208.64,204,208.64,204S178,182.12,166.33,183.58c0,0-68.58,21.89-77.33,52.52,0,0-14.59-59.82,23.34-80.24C83.16,157.32,52.52,136.89,0,150c13.13-24.8,30.64-45.23,86.08-45.23,0,0,48.15,1.46,73,32.1,0,0-42.31-68.57,109.43-118.18C268.46,18.71,223.23,56.65,284.51,112.09Z"/><path class="cls-2" d="M445,293c0,43.77-13.13,56.9-13.13,56.9l-16.05,37.93L341.59,397,291.31,260.43l23.84-43.29L364.75,204l54,19,1.46,13.13S445,262.33,445,293Z"/><path class="cls-3" d="M420.2,236.1s-15.08-28.61-87.79-13.57-39.78-83.78-39.78-83.78,38.57-15,60.45-4.78S424.57,171.91,420.2,236.1Z"/><path class="cls-4" d="M296.18,139.81c23.34,7.29,43.77,49.61,40.85,70s-32.1,43.77-32.1,43.77,0,43.77-36.47,48.15-81.71-48.15-80.25-70,10.22-54,10.22-54S222.64,116.83,296.18,139.81Z"/><path class="cls-4" d="M431.87,349.91s2.92,17.51,2.92,27.72-17.51,108-135.69,83.16,54-110.88,54-110.88S382.26,387.84,431.87,349.91Z"/><path class="cls-5" d="M275.75,262.37c17.51,0,24.81-5.84,29.18-8.76-1.45,2.92,27.73,81.71,48.15,96.3-2.92,1.46,14.59,59.82-61.28,71.49-11.67,14.59-29.18,17.51-29.18,17.51s-96.29-26.26-87.54-68.58S182.38,258,198.43,258s24.8-1.46,24.8-1.46S258.25,262.37,275.75,262.37Z"/><path class="cls-2" d="M299.1,460.79s-17.51,21.89-52.53,20.43S191,462.89,190.31,456,232,427.24,232,427.24l21.89-1.46s26.26,5.83,37.93-4.38C286,433.07,299.1,460.79,299.1,460.79Z"/><path class="cls-4" d="M253.87,425.78s-20.43,32.09-49.61,32.09S129.85,430.15,124,371.79s0-62.73,0-62.73l23.34-23.35,43.77-1.46,7.3,8.76S188.21,392.22,253.87,425.78Z"/><path class="cls-2" d="M198.43,177.74s-7.3,62.74,24.8,78.79c-23.34,8.75-24.8,36.48-24.8,36.48S157.57,320.73,143,313.43c-17.5,8.76-47.84-16.13-47.84-16.13l14.29-36.39S122.56,176.28,198.43,177.74Z"/><path class="cls-3" d="M124,371.79s-64.2-40.85-14.59-110.88C112.34,307.6,143,313.43,143,313.43S122.56,351.37,124,371.79Z"/></svg>