<?xml version="1.0" encoding="utf-8"?>
<!-- Generator: Adobe Illustrator 22.0.1, SVG Export Plug-In . SVG Version: 6.00 Build 0)  -->
<svg version="1.1" id="Lager_1" xmlns="http://www.w3.org/2000/svg" xmlns:xlink="http://www.w3.org/1999/xlink" x="0px" y="0px"
	 viewBox="0 0 256.7 68.5" style="enable-background:new 0 0 256.7 68.5;" xml:space="preserve">
<style type="text/css">
	.st0{fill:#9E3223;}
	.st1{fill:#1D1D1B;}
</style>
<g>
	<path class="st0" d="M11.9,9.8c0-1.9,0.1-3.3,0.3-4.2c0.2-0.9,0.6-1.7,1.2-2.3c0.5-0.5,1.1-0.9,1.8-1.2c0.7-0.2,1.5-0.4,2.6-0.4
		V1.1H0v0.6C1.1,1.8,1.9,2,2.6,2.2c0.7,0.2,1.2,0.6,1.7,1.2c0.6,0.6,1,1.3,1.2,2.3c0.2,0.9,0.3,2.3,0.3,4.2v20.5
		c0,1.9-0.1,3.3-0.3,4.2c-0.2,0.9-0.6,1.7-1.2,2.2c-0.5,0.5-1.1,0.9-1.7,1.2c-0.7,0.3-1.5,0.4-2.6,0.5V39h17.7v-0.6
		c-1.1-0.1-1.9-0.2-2.6-0.5c-0.7-0.2-1.2-0.6-1.7-1.2c-0.6-0.6-1-1.3-1.2-2.3c-0.2-0.9-0.3-2.3-0.3-4.2V20.1h19.7v10.2
		c0,1.9-0.1,3.3-0.3,4.2c-0.2,0.9-0.6,1.7-1.2,2.2c-0.5,0.5-1.1,0.9-1.8,1.2c-0.7,0.3-1.5,0.4-2.6,0.5V39h17.7v-0.6
		c-1.1-0.1-1.9-0.2-2.6-0.5c-0.7-0.2-1.2-0.6-1.8-1.2c-0.6-0.6-1-1.4-1.2-2.3c-0.2-0.9-0.3-2.3-0.3-4.2V9.8c0-1.9,0.1-3.3,0.3-4.2
		c0.2-0.9,0.6-1.7,1.2-2.3c0.5-0.5,1.1-0.9,1.8-1.2c0.7-0.2,1.5-0.4,2.6-0.4V1.1H25.8v0.6c1.1,0.1,1.9,0.2,2.6,0.4
		c0.7,0.2,1.2,0.6,1.8,1.2c0.6,0.6,1,1.3,1.2,2.3c0.2,0.9,0.3,2.3,0.3,4.2v8.9H11.9V9.8L11.9,9.8z M67.1,37.6
		c-0.3,0.2-0.8,0.3-1.3,0.3c-1.2,0-2-0.7-2.3-2c-0.1-0.6-0.2-1.8-0.2-3.6V22.1c0-1.3-0.1-2.3-0.2-2.8c-0.3-1.1-1-2-2.3-2.7
		c-0.8-0.5-1.9-0.8-3.1-1.1c-1.2-0.3-2.4-0.4-3.6-0.4c-1,0-2.1,0.1-3.1,0.3c-1.1,0.2-2,0.5-2.7,0.8c-1.3,0.6-2,1.4-2,2.4
		c0,0.6,0.2,1.2,0.6,1.6c0.4,0.4,1,0.6,1.6,0.6c1,0,1.6-0.4,2-1.3l0.7-1.6c0.3-0.7,0.7-1.2,1.3-1.6c0.6-0.4,1.3-0.6,2-0.6
		c0.6,0,1.2,0.1,1.8,0.4c0.6,0.3,1.1,0.6,1.4,1.1c0.8,1,1.2,2.6,1.2,4.7c0,1-0.1,1.8-0.3,2.4c-0.2,0.6-0.6,1.1-1.2,1.5
		c-0.5,0.4-1.2,0.7-1.9,1c-0.8,0.3-2,0.6-3.6,1c-1.4,0.4-2.4,0.7-3.1,1c-0.7,0.3-1.4,0.8-1.9,1.4c-1,1-1.5,2.3-1.5,3.9
		c0,1.7,0.6,3,1.8,4c1.2,1,2.8,1.5,4.9,1.5c1.6,0,3-0.3,4.2-1c0.6-0.4,1.6-1.1,2.8-2.2c0.6,1.1,1.2,1.8,1.8,2.2c0.9,0.6,2,1,3.3,1
		c2.4,0,3.9-1,4.6-2.9l-0.5-0.3C67.8,36.9,67.4,37.3,67.1,37.6L67.1,37.6z M59,30c0,2.4-0.3,4.1-0.9,5.4c-0.4,0.9-1,1.7-1.8,2.3
		c-0.8,0.6-1.7,0.8-2.6,0.8c-1,0-1.9-0.4-2.6-1.2c-0.7-0.8-1-1.8-1-3c0-1.4,0.4-2.7,1.3-3.8c0.4-0.5,0.9-1,1.4-1.3
		c0.5-0.4,1.4-0.9,2.8-1.6c1.2-0.6,2.3-1.4,3.3-2.2V30L59,30z M48.6,5.3c-0.5,0.5-0.7,1.1-0.7,1.8c0,0.7,0.2,1.3,0.7,1.7
		c0.5,0.5,1.1,0.7,1.8,0.7c0.7,0,1.3-0.2,1.8-0.7c0.5-0.5,0.7-1.1,0.7-1.7c0-0.7-0.2-1.3-0.7-1.8c-0.5-0.5-1.1-0.7-1.8-0.7
		C49.7,4.6,49.1,4.8,48.6,5.3L48.6,5.3z M58.1,5.3c-0.5,0.5-0.7,1.1-0.7,1.7c0,0.7,0.2,1.3,0.7,1.7c0.5,0.5,1.1,0.7,1.7,0.7
		c0.7,0,1.2-0.2,1.7-0.7c0.5-0.5,0.7-1.1,0.7-1.7c0-0.7-0.2-1.2-0.7-1.7c-0.5-0.5-1.1-0.7-1.7-0.7C59.2,4.6,58.6,4.8,58.1,5.3
		L58.1,5.3z M69.5,1.6c0.8,0.1,1.5,0.2,1.9,0.4c0.4,0.2,0.8,0.6,1.1,1.1C72.8,3.6,73,4.2,73.1,5c0.1,0.8,0.1,2.1,0.1,4v21.8
		c0,1.6,0,2.9-0.1,3.7c-0.1,0.9-0.2,1.5-0.4,1.9c-0.3,0.6-0.7,1.1-1.2,1.4c-0.5,0.3-1.3,0.5-2.4,0.6V39h12.3v-0.6
		c-1.4-0.3-2.3-0.6-2.9-1.1c-0.4-0.4-0.7-0.9-0.9-1.5c-0.1-0.6-0.2-1.5-0.2-2.8l0-2.1V0l-8,1V1.6L69.5,1.6z M84.1,39
		c0.3-0.6,0.8-0.8,1.5-0.8c0.3,0,0.5,0,0.6,0.1c0.2,0,0.7,0.2,1.5,0.5c1.3,0.5,2.5,0.7,3.7,0.7c2.3,0,4.1-0.7,5.6-2.2
		c1.3-1.3,1.9-2.9,1.9-4.8c0-1.6-0.4-3-1.3-4.2c-0.9-1.2-2.2-2.2-3.9-3L90.6,24c-1.4-0.6-2.4-1.3-3-2c-0.7-0.7-1-1.6-1-2.5
		c0-1.1,0.4-2,1.1-2.8c0.7-0.8,1.6-1.1,2.6-1.1c0.7,0,1.5,0.2,2.2,0.6c0.8,0.4,1.4,0.9,2,1.7c0.4,0.5,0.8,1,1,1.6
		c0.2,0.5,0.4,1.3,0.7,2.1h0.6l-0.3-6.3h-0.6c-0.3,0.6-0.6,0.8-1,0.8c-0.2,0-0.5-0.1-0.8-0.2l-0.9-0.4c-0.8-0.3-1.7-0.5-2.6-0.5
		c-2.1,0-3.8,0.7-5.1,2.1c-1.1,1.2-1.7,2.6-1.7,4.3c0,1.6,0.6,2.9,1.7,4.1c0.8,0.8,2.3,1.9,4.7,3.1c1.3,0.7,2.3,1.2,2.8,1.6
		c0.6,0.4,1,0.8,1.4,1.3c0.7,0.9,1,1.9,1,3.1c0,1.4-0.5,2.5-1.4,3.3c-0.8,0.7-1.9,1.1-3,1.1c-1.9,0-3.6-1-5-3.1
		c-0.8-1.1-1.4-2.7-1.9-4.6h-0.4V39H84.1L84.1,39z M100.2,16.6c0.8,0.1,1.5,0.2,1.9,0.4c0.4,0.2,0.8,0.6,1.1,1.1
		c0.3,0.5,0.5,1.1,0.6,1.9c0.1,0.8,0.1,2.1,0.1,4v6.8c0,1.6,0,2.9-0.1,3.7c-0.1,0.9-0.2,1.5-0.4,1.9c-0.3,0.6-0.7,1.1-1.2,1.4
		c-0.5,0.3-1.3,0.5-2.4,0.6V39h12.3v-0.6c-1.4-0.3-2.3-0.6-2.9-1.1c-0.4-0.4-0.7-0.9-0.9-1.5c-0.1-0.6-0.2-1.5-0.2-2.8l0-2.1V15
		l-8,1V16.6L100.2,16.6z M107.8,4.3c0.5-0.5,0.7-1,0.7-1.7c0-0.7-0.2-1.3-0.7-1.7c-0.5-0.5-1.1-0.7-1.8-0.7c-0.7,0-1.3,0.2-1.8,0.7
		c-0.5,0.5-0.7,1.1-0.7,1.7c0,0.7,0.2,1.3,0.7,1.7c0.5,0.5,1.1,0.7,1.8,0.7C106.8,5,107.4,4.8,107.8,4.3L107.8,4.3z M113.8,16v0.6
		c0.8,0.1,1.5,0.2,1.9,0.4c0.4,0.2,0.8,0.6,1.1,1.1c0.3,0.5,0.5,1.1,0.6,1.9c0.1,0.8,0.1,2.1,0.1,4v6.8c0,1.6,0,2.9-0.1,3.7
		c-0.1,0.9-0.2,1.5-0.4,1.9c-0.3,0.6-0.7,1.1-1.2,1.4c-0.5,0.3-1.3,0.5-2.4,0.6V39h12.3v-0.6c-1.4-0.3-2.3-0.6-2.9-1.1
		c-0.4-0.4-0.7-0.9-0.9-1.5c-0.1-0.6-0.2-1.5-0.2-2.8l0-2.1v-5.4c0-2.2,0.1-3.7,0.3-4.6c0.2-0.9,0.5-1.8,1.1-2.5
		c0.5-0.7,1.2-1.3,2.1-1.7c0.9-0.4,1.9-0.6,2.9-0.6c1,0,1.8,0.2,2.6,0.5c0.8,0.4,1.4,0.9,1.8,1.5c0.4,0.6,0.7,1.3,0.8,2.3
		c0.1,0.9,0.2,2.4,0.2,4.4v5.9c0,1.6,0,2.8-0.1,3.7c-0.1,0.9-0.2,1.5-0.4,1.9c-0.3,0.6-0.7,1.1-1.2,1.4c-0.5,0.3-1.3,0.5-2.4,0.6V39
		h12.3v-0.6c-1.4-0.3-2.3-0.6-2.9-1.1c-0.4-0.4-0.7-0.9-0.9-1.5c-0.1-0.6-0.2-1.5-0.2-2.8V21.3c0-2-0.7-3.6-2.1-4.7
		c-1.4-1.1-3.4-1.7-5.7-1.7c-3.2,0-5.9,1.2-8.2,3.5V18c0-0.9-0.1-1.9-0.4-3L113.8,16L113.8,16z M149.2,41.1c0-0.8-0.3-1.5-0.8-2
		c-0.5-0.5-1.2-0.8-2-0.8c-1.1,0-2.1,0.4-2.9,1.3c-0.8,0.9-1.2,1.9-1.2,3.2c0,1.6,0.5,2.9,1.6,3.9c1.7,1.6,4.6,2.4,8.6,2.4
		c3.8,0,6.6-0.7,8.6-2.1c1.9-1.4,2.8-3.2,2.8-5.6c0-2.2-0.8-3.9-2.4-5.1c-0.8-0.6-1.8-1.1-2.9-1.3c-1.1-0.3-2.5-0.4-4.1-0.4h-4.6
		c-2.3,0-3.5-0.6-3.5-1.8c0-1.4,1.4-2.1,4.1-2.3c2-0.1,3.2-0.2,3.5-0.3c1.2-0.2,2.4-0.7,3.5-1.4c2.2-1.4,3.2-3.3,3.2-5.8
		c0-1.9-0.8-3.8-2.3-5.7c0.8-0.7,1.5-1,2.2-1c0.6,0,1.1,0.2,1.5,0.7l0.6,0.8c0.5,0.6,1,0.9,1.6,0.9c0.4,0,0.7-0.1,1-0.4
		c0.3-0.3,0.4-0.6,0.4-1.1c0-0.7-0.3-1.3-1-1.8c-0.6-0.4-1.3-0.6-2.2-0.6c-0.8,0-1.6,0.1-2.3,0.4c-0.7,0.3-1.5,0.8-2.4,1.5
		c-1.9-1.3-3.7-1.9-5.4-1.9c-1.2,0-2.3,0.2-3.4,0.7c-1.1,0.5-2.1,1.2-2.9,2c-1.4,1.5-2.1,3.1-2.1,5c0,1.5,0.4,2.8,1.3,4
		c0.9,1.2,2.1,2.2,3.8,2.9c-1.7,0.4-2.8,0.8-3.4,1.2c-1.2,0.8-1.8,1.8-1.8,3.1c0,1.2,0.6,2.3,1.7,3.2c1.1,0.9,2.6,1.3,4.4,1.3h4.4
		c1.9,0,3.3,0.4,4.4,1.1c1,0.7,1.5,1.8,1.5,3.2c0,1.7-0.8,3.1-2.3,4.2c-1.5,1.1-3.5,1.6-6,1.6c-2.3,0-4.2-0.5-5.7-1.4
		c-1.5-1-2.2-2.2-2.2-3.7c0-0.9,0.2-1.7,0.7-2.3c0.5-0.6,1.1-0.9,1.9-0.9c0.5,0,0.9,0.1,1.2,0.3c0.3,0.2,0.6,0.6,0.9,1.1l0.5-0.1
		V41.1L149.2,41.1z M148.4,20c0.2-1,0.6-1.8,1-2.4c0.8-1.3,1.9-2,3.2-2c1.1,0,2,0.5,2.7,1.5c1,1.4,1.4,3.2,1.4,5.5
		c0,2.2-0.4,4-1.1,5.2c-0.7,1.2-1.8,1.9-3.1,1.9c-1.3,0-2.4-0.6-3.2-1.9c-0.8-1.3-1.3-2.9-1.3-4.9C148.1,22,148.2,21,148.4,20
		L148.4,20z M186.4,23.9c0-2.3-0.7-4.3-2-5.8c-0.9-1-1.9-1.8-3.2-2.3c-1.3-0.5-2.6-0.8-4.1-0.8c-2.8,0-5.2,0.9-7.4,2.6
		c-3,2.4-4.5,5.6-4.5,9.8c0,3.1,0.8,5.6,2.4,7.7c1.1,1.5,2.5,2.6,4.1,3.3c1.6,0.7,3.6,1.1,5.9,1.1c2.6,0,4.7-0.6,6.3-1.7
		c1.6-1.1,2.6-2.7,3.1-4.9l-0.6-0.2c-0.5,1.4-1.1,2.5-1.7,3.1c-0.6,0.6-1.3,1.1-2.2,1.4c-0.9,0.3-1.8,0.5-2.8,0.5
		c-1.3,0-2.6-0.3-3.9-0.9c-1.2-0.6-2.3-1.4-3.1-2.4c-0.8-1-1.5-2.3-1.9-3.8c-0.5-1.5-0.7-3.1-0.7-4.7c0-0.4,0-1.1,0.1-2H186.4
		L186.4,23.9z M170.3,22.8c0.2-2.1,0.9-3.8,2.1-5.2c1.2-1.4,2.6-2.1,4.2-2.1c0.9,0,1.8,0.3,2.7,0.8c0.8,0.5,1.5,1.2,2,2.2
		c0.6,1,0.9,2.4,1,4.3H170.3L170.3,22.8z M190.8,39c0.3-0.6,0.8-0.8,1.5-0.8c0.3,0,0.5,0,0.6,0.1c0.2,0,0.7,0.2,1.5,0.5
		c1.3,0.5,2.5,0.7,3.7,0.7c2.3,0,4.1-0.7,5.6-2.2c1.3-1.3,1.9-2.9,1.9-4.8c0-1.6-0.4-3-1.3-4.2c-0.9-1.2-2.2-2.2-3.9-3l-2.9-1.3
		c-1.4-0.6-2.4-1.3-3-2c-0.7-0.7-1-1.6-1-2.5c0-1.1,0.4-2,1.1-2.8c0.7-0.8,1.6-1.1,2.6-1.1c0.7,0,1.5,0.2,2.2,0.6
		c0.8,0.4,1.4,0.9,2,1.7c0.4,0.5,0.8,1,1,1.6c0.2,0.5,0.4,1.3,0.7,2.1h0.6l-0.3-6.3h-0.6c-0.3,0.6-0.6,0.8-1,0.8
		c-0.2,0-0.5-0.1-0.8-0.2l-0.9-0.4c-0.8-0.3-1.7-0.5-2.6-0.5c-2.1,0-3.8,0.7-5.1,2.1c-1.1,1.2-1.7,2.6-1.7,4.3
		c0,1.6,0.6,2.9,1.7,4.1c0.8,0.8,2.3,1.9,4.7,3.1c1.3,0.7,2.3,1.2,2.8,1.6c0.6,0.4,1,0.8,1.4,1.3c0.7,0.9,1,1.9,1,3.1
		c0,1.4-0.5,2.5-1.4,3.3c-0.9,0.7-1.9,1.1-3,1.1c-1.9,0-3.6-1-5-3.1c-0.8-1.1-1.4-2.7-1.9-4.6h-0.4V39H190.8L190.8,39z M205.9,16
		c0.6,0.1,1.2,0.3,1.7,0.6c0.3,0.2,0.6,0.6,0.8,1.1c0.3,0.5,0.7,1.3,1.2,2.5l0.8,2l5.8,13.8c0.7,1.7,1.1,2.9,1.1,3.6
		c0,0.5-0.2,1.2-0.6,2.1l-0.9,2.1c-0.7,1.7-1.7,2.6-2.8,2.6c-0.2,0-0.4,0-0.6-0.1c-0.2-0.1-0.6-0.2-1.2-0.4
		c-0.6-0.3-1.2-0.4-1.7-0.4c-0.6,0-1,0.1-1.4,0.4c-0.4,0.3-0.5,0.7-0.5,1.2c0,0.6,0.3,1.1,0.9,1.5c0.6,0.4,1.4,0.6,2.4,0.6
		c1.5,0,2.8-0.6,3.8-1.8c0.6-0.7,1.4-2.2,2.3-4.6l8.1-19.6c1.2-2.8,2-4.7,2.6-5.5c0.4-0.5,0.7-0.9,1.1-1.1c0.4-0.2,1-0.5,1.8-0.7
		v-0.6h-7.9V16c0.9,0.1,1.6,0.4,2,0.9c0.5,0.5,0.7,1.2,0.7,2c0,1-0.5,2.8-1.5,5.3l-4.1,10l-4.6-11.9c-0.8-1.9-1.1-3.2-1.1-4
		c0-0.9,0.4-1.5,1.1-1.9c0.3-0.2,0.9-0.3,1.6-0.4v-0.6h-10.8V16L205.9,16z M229.2,1.6c0.8,0.1,1.5,0.2,1.9,0.4
		c0.4,0.2,0.8,0.6,1.1,1.1c0.3,0.5,0.5,1.1,0.6,1.9c0.1,0.8,0.1,2.1,0.1,4v21.8c0,1.6,0,2.9-0.1,3.7c-0.1,0.9-0.2,1.5-0.4,1.9
		c-0.3,0.6-0.7,1.1-1.2,1.4c-0.5,0.3-1.3,0.5-2.4,0.6V39h12.3v-0.6c-1.4-0.3-2.3-0.6-2.9-1.1c-0.4-0.4-0.7-0.9-0.9-1.5
		c-0.1-0.6-0.2-1.5-0.2-2.8l0-2.1V0l-8,1V1.6L229.2,1.6z M248.1,8.2h-1l-0.3,0.9c-0.3,1.1-0.7,1.9-1.1,2.6c-0.4,0.7-0.9,1.4-1.5,2
		c-1,1.1-2.1,1.9-3.3,2.3v0.4h3v16.8c0,1.6,0.1,2.7,0.3,3.3c0.2,0.6,0.5,1.2,1.1,1.6c1,0.9,2.6,1.3,4.8,1.3c1.6,0,3-0.3,4.1-0.8
		c1.1-0.5,2-1.4,2.6-2.5l-0.4-0.4c-0.7,0.9-1.3,1.5-1.8,1.9c-0.6,0.3-1.2,0.5-2.1,0.5c-0.7,0-1.3-0.1-1.9-0.4
		c-0.6-0.3-1-0.6-1.4-1.1c-0.7-0.8-1-2.2-1-4.2V16.5h7.1v-1.1h-7.1V8.2L248.1,8.2z"/>
	<path class="st1" d="M9.8,65.7c0,0.2,0,0.5,0,0.9c0,0.4,0.1,0.7,0.1,0.9c0,0.2,0,0.3,0,0.4l0.1,0.1c0.3,0,0.8,0.1,1.4,0.2
		c0.7,0.1,1.2,0.2,1.6,0.2c1,0,1.7-0.3,2.2-0.8c0.5-0.5,0.7-1.1,0.7-1.7c0-0.6-0.2-1.2-0.7-1.5c-0.5-0.4-1.3-0.8-2.3-1.1
		c-0.8-0.3-1.4-0.5-1.8-0.7c-0.4-0.2-0.6-0.5-0.9-0.9c-0.2-0.4-0.3-0.8-0.3-1.3c0-0.2,0-0.4,0.1-0.6c-0.3,0.5-0.5,1-0.5,1.5
		c0,0.4,0.1,0.8,0.4,1.2c0.2,0.4,0.5,0.6,0.9,0.8c0.3,0.2,0.9,0.4,1.7,0.7c1,0.3,1.7,0.6,2,0.9c0.4,0.3,0.5,0.6,0.5,1.1
		c0,0.5-0.2,0.9-0.6,1.2c-0.4,0.3-0.9,0.5-1.4,0.5c-0.8,0-1.4-0.3-2-0.8c-0.6-0.5-0.9-1.2-1-2H9.8C9.8,65.2,9.8,65.4,9.8,65.7
		L9.8,65.7L9.8,65.7z M16.5,60.5c0-0.2,0-0.5,0-0.8c0-0.3,0-0.5,0-0.7l0-0.4v-0.1c-1-0.3-1.9-0.4-2.6-0.4c-1.1,0-1.9,0.2-2.5,0.6
		c-0.6,0.4-0.9,1-0.9,1.7c0,0.6,0.2,1.1,0.6,1.4c0.4,0.3,1.2,0.6,2.4,1c0.8,0.3,1.4,0.5,1.8,0.8c0.4,0.2,0.7,0.5,0.9,0.9
		c0.2,0.4,0.3,0.8,0.3,1.3c0,0.5-0.1,0.9-0.3,1.2c0.6-0.4,0.9-1.1,0.9-1.8c0-0.5-0.1-1-0.4-1.4c-0.3-0.4-0.6-0.7-1-0.9
		c-0.4-0.2-1-0.5-1.9-0.8c-1-0.3-1.7-0.6-2-0.9c-0.3-0.2-0.5-0.5-0.5-0.9c0-0.4,0.2-0.7,0.6-1c0.4-0.3,0.9-0.4,1.6-0.4
		c0.8,0,1.5,0.2,2,0.5c0.6,0.4,0.9,0.9,0.9,1.6h0.2C16.5,60.8,16.5,60.6,16.5,60.5L16.5,60.5L16.5,60.5z M32.2,68.4v-0.2
		c-0.9-0.3-1.7-1.3-2.5-2.9l-2.2-4.6c0-0.1-0.1-0.1-0.1-0.2c0-0.1-0.2-0.4-0.4-0.9c-0.2-0.5-0.4-0.9-0.5-1.2h-0.9l4.7,9.9
		C30.8,68.3,31.4,68.3,32.2,68.4L32.2,68.4L32.2,68.4z M25.1,60.7l1.4,2.9h-2.8L25.1,60.7L25.1,60.7z M28.1,67.4
		c0,0.4-0.2,0.7-0.7,0.8v0.2c0.9-0.1,1.6-0.1,2.2-0.1l-4.7-9.9c-0.2,0-0.5,0-1.1-0.1c-0.5,0-0.9-0.1-1.2-0.1h-0.3v0.2
		c0.6,0,1,0.2,1.5,0.4c0.4,0.3,0.7,0.6,1,1.1L21.6,66c-0.6,1.1-1.2,1.8-1.9,2.2v0.2c0.1,0,0.3,0,0.5,0c0.4,0,0.7-0.1,1-0.1
		c0.3,0,0.6,0,1,0.1c0.3,0,0.4,0,0.6,0v-0.2c-0.5-0.2-0.8-0.5-0.8-1c0-0.3,0.1-0.5,0.2-0.8c0.1-0.2,0.1-0.3,0.1-0.3l0-0.1l0.9-1.7
		h3.5l0.8,1.7l0,0C28,66.6,28.1,67.1,28.1,67.4L28.1,67.4L28.1,67.4z M26,55.9c0.2,0.2,0.2,0.4,0.2,0.6c0,0.2-0.1,0.4-0.2,0.6
		c-0.2,0.2-0.4,0.2-0.6,0.2c-0.2,0-0.4-0.1-0.6-0.2c-0.2-0.2-0.2-0.4-0.2-0.6c0-0.2,0.1-0.4,0.2-0.6c0.2-0.2,0.3-0.2,0.6-0.2
		C25.6,55.7,25.8,55.8,26,55.9L26,55.9L26,55.9z M24.3,55.4c-0.3,0.3-0.5,0.7-0.5,1.1c0,0.4,0.2,0.8,0.5,1.1
		c0.3,0.3,0.7,0.5,1.1,0.5s0.8-0.1,1.1-0.5c0.3-0.3,0.4-0.7,0.4-1.1c0-0.4-0.1-0.8-0.4-1.1c-0.3-0.3-0.7-0.4-1.1-0.4
		C25,55,24.6,55.1,24.3,55.4L24.3,55.4L24.3,55.4z M50.6,67.6c0.1,0,0.1-0.1,0.2-0.1c0.2-0.1,0.3-0.1,0.4-0.1V65
		c0-1,0.3-1.6,0.9-1.8V63c-0.1,0-0.4,0-0.8,0.1c-0.2,0-0.5,0-0.8,0.1v4.5C50.5,67.6,50.6,67.6,50.6,67.6L50.6,67.6z M42.2,60.8
		c-0.4,0.7-0.6,1.5-0.6,2.5c0,1.6,0.6,2.9,1.8,3.9c-0.5-0.8-0.7-1.5-0.8-2.2c-0.1-0.7-0.1-1.3-0.1-1.7c0-1.7,0.4-3,1.1-4.1
		C43.1,59.6,42.6,60.1,42.2,60.8L42.2,60.8L42.2,60.8z M49,63c-0.4,0-0.7,0-1-0.1v0.2c0.7,0.1,1,0.7,1,1.6V66c0,0.6-0.1,0.9-0.2,1.1
		c-0.3,0.4-0.9,0.6-1.8,0.6c-2.1,0-3.1-1.5-3.1-4.5c0-2.9,1.2-4.4,3.7-4.4c0.8,0,1.5,0.2,2,0.6c0.6,0.4,0.9,0.9,1.1,1.6h0.2
		c0-0.4,0-0.7,0-1c0-0.3,0-0.8,0-1.3c-1-0.4-2.1-0.6-3.2-0.6c-3,0-4.5,1.8-4.5,5.4c0,0.8,0.1,1.5,0.3,2.2c0.2,0.6,0.5,1.1,0.8,1.5
		c0.7,0.8,1.7,1.2,2.9,1.2c0.7,0,1.6-0.2,2.6-0.6v-4.8C49.6,63.1,49.3,63.1,49,63L49,63L49,63z M66.3,63.2c0-1.9-0.6-3.2-1.9-4
		c0.7,0.9,1,2.2,1,3.9c0,1.9-0.3,3.3-1,4.2C65.7,66.4,66.3,65.1,66.3,63.2L66.3,63.2L66.3,63.2z M54.9,63.2c0,1.8,0.6,3.2,1.9,4
		c-0.7-1.1-1-2.4-1-3.9c0-1.7,0.3-3,1-4.1C55.5,60,54.9,61.4,54.9,63.2L54.9,63.2L54.9,63.2z M60.6,67.7c-2.2,0-3.2-1.4-3.2-4.3
		c0-3.1,1.1-4.6,3.2-4.6c2.2,0,3.3,1.5,3.3,4.5C63.8,66.2,62.7,67.7,60.6,67.7L60.6,67.7L60.6,67.7z M63.6,59.3
		c-0.7-0.9-1.8-1.3-3-1.3c-1.3,0-2.3,0.4-3,1.3c-0.7,0.9-1.1,2.2-1.1,3.9c0,1.6,0.4,2.9,1.1,3.9c0.7,0.9,1.7,1.4,3,1.4
		c0.8,0,1.5-0.2,2.2-0.6c0.6-0.4,1.1-1,1.5-1.7c0.4-0.8,0.5-1.8,0.5-2.9C64.7,61.5,64.3,60.2,63.6,59.3L63.6,59.3L63.6,59.3z
		 M76.9,68.4v-0.2c-0.5-0.1-0.8-0.3-1-0.7c-0.2-0.4-0.3-1-0.3-1.7V59h2.1c0.8,0,1.3,0.2,1.6,0.5c0.2,0.3,0.4,0.8,0.4,1.3h0.2
		c0-0.3,0-0.6,0-0.8c0-0.4,0-0.8,0-1.1c0-0.3,0-0.5,0-0.6c-0.6,0.1-1.2,0.1-1.8,0.1h-3.4v9.9H75C75.2,68.3,75.8,68.3,76.9,68.4
		L76.9,68.4L76.9,68.4z M70.2,58.3c-0.5,0-0.9,0-1.2-0.1c0,0.5,0,1.2-0.1,1.8c0,0.2,0,0.4,0,0.5c0,0.1,0,0.2,0,0.3H69
		c0.2-0.7,0.4-1.2,0.6-1.4c0.3-0.3,0.7-0.4,1.3-0.4h2.4v6.4c0,0.9-0.1,1.6-0.3,2c-0.2,0.4-0.6,0.7-1.1,0.8v0.2
		c0.8-0.1,1.4-0.1,1.8-0.1h0.3v-9.9H71L70.2,58.3L70.2,58.3z M90.7,68.4v-0.2c-0.5-0.1-0.8-0.3-1-0.7c-0.2-0.4-0.3-1-0.3-1.7V59h2.1
		c0.8,0,1.3,0.2,1.6,0.5c0.2,0.3,0.4,0.8,0.4,1.3h0.2c0-0.3,0-0.6,0-0.8c0-0.4,0-0.8,0-1.1c0-0.3,0-0.5,0-0.6
		c-0.6,0.1-1.2,0.1-1.8,0.1h-3.4v9.9h0.2C88.9,68.3,89.5,68.3,90.7,68.4L90.7,68.4L90.7,68.4z M83.9,58.3c-0.5,0-0.9,0-1.2-0.1
		c0,0.5,0,1.2-0.1,1.8c0,0.2,0,0.4,0,0.5c0,0.1,0,0.2,0,0.3h0.2c0.2-0.7,0.4-1.2,0.6-1.4c0.3-0.3,0.7-0.4,1.3-0.4h2.4v6.4
		c0,0.9-0.1,1.6-0.3,2c-0.2,0.4-0.6,0.7-1.1,0.8v0.2c0.8-0.1,1.4-0.1,1.8-0.1h0.3v-9.9h-3.1L83.9,58.3L83.9,58.3z M103.5,65.7
		c0,0.2,0,0.5,0,0.9c0,0.4,0.1,0.7,0.1,0.9c0,0.2,0,0.3,0,0.4l0.1,0.1c0.3,0,0.8,0.1,1.4,0.2c0.7,0.1,1.2,0.2,1.6,0.2
		c1,0,1.7-0.3,2.2-0.8c0.5-0.5,0.7-1.1,0.7-1.7c0-0.6-0.2-1.2-0.7-1.5c-0.5-0.4-1.3-0.8-2.3-1.1c-0.8-0.3-1.4-0.5-1.8-0.7
		c-0.4-0.2-0.6-0.5-0.9-0.9c-0.2-0.4-0.3-0.8-0.3-1.3c0-0.2,0-0.4,0.1-0.6c-0.3,0.5-0.5,1-0.5,1.5c0,0.4,0.1,0.8,0.4,1.2
		c0.2,0.4,0.5,0.6,0.9,0.8c0.3,0.2,0.9,0.4,1.7,0.7c1,0.3,1.7,0.6,2,0.9c0.4,0.3,0.5,0.6,0.5,1.1c0,0.5-0.2,0.9-0.6,1.2
		c-0.4,0.3-0.8,0.5-1.4,0.5c-0.8,0-1.4-0.3-2-0.8c-0.6-0.5-0.9-1.2-1-2h-0.2C103.5,65.2,103.5,65.4,103.5,65.7L103.5,65.7
		L103.5,65.7z M110.2,60.5c0-0.2,0-0.5,0-0.8c0-0.3,0-0.5,0-0.7l0-0.4v-0.1c-1-0.3-1.9-0.4-2.6-0.4c-1.1,0-1.9,0.2-2.5,0.6
		c-0.6,0.4-0.9,1-0.9,1.7c0,0.6,0.2,1.1,0.6,1.4c0.4,0.3,1.2,0.6,2.4,1c0.8,0.3,1.4,0.5,1.8,0.8c0.4,0.2,0.7,0.5,0.9,0.9
		c0.2,0.4,0.3,0.8,0.3,1.3c0,0.5-0.1,0.9-0.3,1.2c0.6-0.4,0.9-1.1,0.9-1.8c0-0.5-0.1-1-0.4-1.4c-0.3-0.4-0.6-0.7-1-0.9
		c-0.4-0.2-1-0.5-1.9-0.8c-1-0.3-1.7-0.6-2-0.9c-0.3-0.2-0.5-0.5-0.5-0.9c0-0.4,0.2-0.7,0.6-1c0.4-0.3,0.9-0.4,1.6-0.4
		c0.8,0,1.5,0.2,2,0.5c0.6,0.4,0.9,0.9,0.9,1.6h0.2C110.2,60.8,110.2,60.6,110.2,60.5L110.2,60.5L110.2,60.5z M125.1,63.2
		c0-1.9-0.6-3.2-1.9-4c0.7,0.9,1,2.2,1,3.9c0,1.9-0.3,3.3-1,4.2C124.5,66.4,125.1,65.1,125.1,63.2L125.1,63.2L125.1,63.2z
		 M113.7,63.2c0,1.8,0.6,3.2,1.9,4c-0.7-1.1-1-2.4-1-3.9c0-1.7,0.3-3,1-4.1C114.3,60,113.7,61.4,113.7,63.2L113.7,63.2L113.7,63.2z
		 M119.4,67.7c-2.2,0-3.2-1.4-3.2-4.3c0-3.1,1.1-4.6,3.2-4.6c2.2,0,3.3,1.5,3.3,4.5C122.6,66.2,121.6,67.7,119.4,67.7L119.4,67.7
		L119.4,67.7z M122.4,59.3c-0.7-0.9-1.8-1.3-3-1.3c-1.3,0-2.3,0.4-3,1.3c-0.7,0.9-1.1,2.2-1.1,3.9c0,1.6,0.4,2.9,1.1,3.9
		c0.7,0.9,1.7,1.4,3,1.4c0.8,0,1.5-0.2,2.2-0.6c0.6-0.4,1.1-1,1.5-1.7c0.4-0.8,0.5-1.8,0.5-2.9C123.5,61.5,123.1,60.2,122.4,59.3
		L122.4,59.3L122.4,59.3z M131.9,58.4h-0.8l3.9,8.3l3-6.6l0.2,5.5c0,0.4,0,0.6,0,0.6c0,1.1-0.4,1.8-1.1,2v0.2l0.6-0.1
		c0.4,0,0.8-0.1,1-0.1h0.4l-0.4-9.9H138l-3,6.6L131.9,58.4L131.9,58.4z M142,68.4v-0.2c-0.5-0.1-0.8-0.3-1-0.7
		c-0.2-0.4-0.3-1-0.4-1.8l-0.2-4.5l0-1c0-0.5,0.1-0.9,0.4-1.2c0.2-0.3,0.6-0.5,1-0.6v-0.2c-0.8,0.1-1.5,0.1-1.9,0.1h-0.3l0.5,9.9
		C140.3,68.3,141,68.3,142,68.4L142,68.4L142,68.4z M129.7,58.3c-0.6,0-1.1,0-1.6-0.1v0.2c0.7,0.2,1.2,0.5,1.6,0.9l-0.3,6.4
		c-0.1,1.4-0.5,2.2-1.3,2.4v0.2c0.8-0.1,1.3-0.1,1.6-0.1c0.2,0,0.7,0,1.4,0.1c0.2,0,0.3,0,0.3,0v-0.2c-0.8-0.1-1.3-0.7-1.3-1.8
		c0,0.1,0-0.1,0-0.7l0.2-5.6l3.9,8.3l0.4-0.9l-4.3-9.1L129.7,58.3L129.7,58.3z M151.6,58.3v0.2c0.4,0.1,0.7,0.3,0.9,0.6
		c0.2,0.3,0.4,1,0.4,1.9v4.3c0,0.8,0,1.3-0.1,1.6c-0.1,0.3-0.2,0.6-0.4,0.8c-0.2,0.2-0.5,0.4-0.8,0.5v0.2l2-0.1v-9.9
		C152.6,58.3,152,58.3,151.6,58.3L151.6,58.3L151.6,58.3z M163.3,68.4v-0.2c-0.8-0.2-1.3-1-1.3-2.4v-4.2l0-0.9c0-1.3,0.4-2,1.2-2.3
		v-0.2c-0.7,0.1-1.4,0.1-2,0.1v9.9C161.5,68.3,162.1,68.3,163.3,68.4L163.3,68.4L163.3,68.4z M158.5,58.3v0.2c0.4,0.1,0.8,0.4,1,0.8
		c0.2,0.4,0.3,1,0.3,1.8v1.8h-4.8v-1.6c0-0.9,0.1-1.6,0.3-2c0.2-0.4,0.5-0.6,1-0.8v-0.2c-0.8,0.1-1.5,0.1-2.1,0.1v9.9
		c0.6,0,1.3,0,2.1,0.1v-0.2c-0.4-0.1-0.7-0.3-0.9-0.6c-0.3-0.3-0.4-0.9-0.4-1.8v-2.3h4.8v2c0,1-0.1,1.7-0.4,2
		c-0.2,0.4-0.6,0.6-0.9,0.6v0.2c1.1-0.1,1.8-0.1,2.1-0.1v-9.9C159.9,58.4,159.2,58.3,158.5,58.3L158.5,58.3L158.5,58.3z M166.6,58.3
		v0.2c0.3,0.1,0.6,0.3,0.9,0.6c0.2,0.3,0.4,1,0.4,1.9v3.9c0,1.1,0,1.7-0.1,2.1c-0.1,0.3-0.2,0.6-0.4,0.8c-0.2,0.2-0.4,0.4-0.8,0.5
		v0.2c0.7-0.1,1.2-0.1,1.4-0.1h0.6v-9.9h-0.3C167.5,58.3,167,58.3,166.6,58.3L166.6,58.3L166.6,58.3z M174.9,68.4
		c0.1-0.4,0.2-0.8,0.4-1.3c0.1-0.4,0.2-0.7,0.3-1h-0.2c-0.4,0.6-0.8,1-1.2,1.2c-0.4,0.2-1,0.3-1.8,0.3H171c-0.3,0-0.6,0-0.8-0.1
		c-0.1-0.6-0.1-1.3-0.1-2.1v-2h2.4c0.6,0,1,0.1,1.3,0.3c0.3,0.2,0.4,0.6,0.5,1.1h0.2c0-0.4,0-0.6,0-0.7c0-0.4-0.1-0.8-0.1-1
		c0-0.4,0-0.9,0.1-1.5h-0.2c-0.1,0.5-0.4,0.8-0.6,0.9c-0.3,0.1-0.8,0.2-1.5,0.2h-2v-1.5l0-0.6c0-0.8,0.1-1.3,0.2-1.5
		c0.2,0,0.4,0,0.7,0h1.5c0.8,0,1.3,0.1,1.6,0.2c0.3,0.2,0.5,0.5,0.8,1h0.2V60c0,0,0-0.2,0-0.5c0-0.5,0-0.7,0-0.9c0-0.1,0-0.2,0-0.4
		c-1.4,0.1-2.4,0.1-2.9,0.1h-2.7v9.9h3.8C173.6,68.3,174.2,68.3,174.9,68.4L174.9,68.4L174.9,68.4z M182.4,58.4h-0.8l3.9,8.3l3-6.6
		l0.2,5.5c0,0.4,0,0.6,0,0.6c0,1.1-0.4,1.8-1.1,2v0.2l0.6-0.1c0.4,0,0.8-0.1,1-0.1h0.4l-0.4-9.9h-0.7l-3,6.6L182.4,58.4L182.4,58.4z
		 M192.5,68.4v-0.2c-0.5-0.1-0.8-0.3-1-0.7c-0.2-0.4-0.3-1-0.4-1.8l-0.2-4.5l0-1c0-0.5,0.1-0.9,0.4-1.2c0.2-0.3,0.6-0.5,1-0.6v-0.2
		c-0.8,0.1-1.5,0.1-1.9,0.1h-0.3l0.5,9.9C190.9,68.3,191.5,68.3,192.5,68.4L192.5,68.4L192.5,68.4z M180.2,58.3
		c-0.6,0-1.1,0-1.6-0.1v0.2c0.7,0.2,1.2,0.5,1.6,0.9l-0.3,6.4c-0.1,1.4-0.5,2.2-1.3,2.4v0.2c0.8-0.1,1.3-0.1,1.6-0.1
		c0.2,0,0.7,0,1.4,0.1c0.2,0,0.3,0,0.3,0v-0.2c-0.8-0.1-1.3-0.7-1.3-1.8c0,0.1,0-0.1,0-0.7l0.2-5.6l3.9,8.3l0.4-0.9l-4.3-9.1
		L180.2,58.3L180.2,58.3z M195.5,58.3v0.2c0.4,0.1,0.7,0.3,0.9,0.6c0.2,0.3,0.2,0.7,0.2,1.2v6.2c0,1-0.4,1.6-1.1,1.7v0.2
		c1-0.1,1.6-0.1,1.9-0.1v-9.9C196.8,58.3,196.1,58.3,195.5,58.3L195.5,58.3L195.5,58.3z M198.9,62.9v-1.7c0-1.1,0.1-1.8,0.2-2.1
		c0.2-0.3,0.5-0.5,0.9-0.6v-0.2c-0.4,0-1.1,0.1-1.9,0.1v9.9c0.5,0,1.1,0,1.9,0.1v-0.2c-0.4-0.1-0.7-0.3-0.9-0.6
		c-0.2-0.3-0.3-0.6-0.3-1.2v-3.3l4.6,5.1h1l-5.2-5.7L198.9,62.9L198.9,62.9z M207.2,68.4v-0.2c-0.6,0-1.4-0.7-2.6-1.9l-3.7-4.1
		l2-1.6c0,0,0.1-0.1,0.1-0.1l0.6-0.5c1-0.8,2-1.3,2.9-1.6v-0.2c-0.4,0-0.8,0-1.2,0.1c-0.3,0-0.5,0-0.7,0c-0.2,0-0.5,0-0.9,0
		c-0.5,0-0.9-0.1-1.1-0.1v0.2c0.4,0.2,0.6,0.4,0.6,0.6c0,0.3-0.4,0.8-1.1,1.4l-2.2,1.7l5.6,6.2h0.4
		C205.9,68.3,206.4,68.3,207.2,68.4L207.2,68.4L207.2,68.4z M220.4,63.2c0-1.9-0.6-3.2-1.9-4c0.7,0.9,1,2.2,1,3.9
		c0,1.9-0.3,3.3-1,4.2C219.7,66.4,220.4,65.1,220.4,63.2L220.4,63.2L220.4,63.2z M208.9,63.2c0,1.8,0.6,3.2,1.9,4
		c-0.7-1.1-1-2.4-1-3.9c0-1.7,0.3-3,1-4.1C209.6,60,208.9,61.4,208.9,63.2L208.9,63.2L208.9,63.2z M214.7,67.7
		c-2.2,0-3.2-1.4-3.2-4.3c0-3.1,1.1-4.6,3.2-4.6c2.2,0,3.3,1.5,3.3,4.5C217.9,66.2,216.8,67.7,214.7,67.7L214.7,67.7L214.7,67.7z
		 M217.7,59.3c-0.7-0.9-1.8-1.3-3-1.3c-1.3,0-2.3,0.4-3,1.3c-0.7,0.9-1.1,2.2-1.1,3.9c0,1.6,0.4,2.9,1.1,3.9c0.7,0.9,1.7,1.4,3,1.4
		c0.8,0,1.5-0.2,2.2-0.6c0.6-0.4,1.1-1,1.5-1.7c0.4-0.8,0.5-1.8,0.5-2.9C218.8,61.5,218.4,60.2,217.7,59.3L217.7,59.3L217.7,59.3z
		 M223.5,58.3v0.2c0.4,0.1,0.7,0.3,0.9,0.6c0.2,0.3,0.2,0.7,0.2,1.2v6.2c0,1-0.4,1.6-1.1,1.7v0.2c1-0.1,1.6-0.1,1.9-0.1v-9.9
		C224.8,58.3,224.1,58.3,223.5,58.3L223.5,58.3L223.5,58.3z M226.9,62.9v-1.7c0-1.1,0.1-1.8,0.2-2.1c0.2-0.3,0.5-0.5,0.9-0.6v-0.2
		c-0.4,0-1.1,0.1-1.9,0.1v9.9c0.5,0,1.1,0,1.9,0.1v-0.2c-0.4-0.1-0.7-0.3-0.9-0.6c-0.2-0.3-0.3-0.6-0.3-1.2v-3.3l4.6,5.1h1l-5.2-5.7
		L226.9,62.9L226.9,62.9z M235.2,68.4v-0.2c-0.6,0-1.4-0.7-2.6-1.9l-3.7-4.1l2-1.6c0,0,0.1-0.1,0.1-0.1l0.6-0.5c1-0.8,2-1.3,2.9-1.6
		v-0.2c-0.4,0-0.8,0-1.2,0.1c-0.3,0-0.5,0-0.7,0c-0.2,0-0.5,0-0.9,0c-0.5,0-0.9-0.1-1.1-0.1v0.2c0.4,0.2,0.6,0.4,0.6,0.6
		c0,0.3-0.4,0.8-1.1,1.4l-2.2,1.7l5.6,6.2h0.4C233.9,68.3,234.3,68.3,235.2,68.4L235.2,68.4L235.2,68.4z M245.6,68.4v-0.2
		c-0.5-0.1-0.8-0.3-1-0.7c-0.2-0.4-0.3-1-0.3-1.7V59h2.1c0.8,0,1.3,0.2,1.6,0.5c0.2,0.3,0.4,0.8,0.4,1.3h0.2c0-0.3,0-0.6,0-0.8
		c0-0.4,0-0.8,0-1.1c0-0.3,0-0.5,0-0.6c-0.6,0.1-1.2,0.1-1.8,0.1h-3.4v9.9h0.2C243.8,68.3,244.5,68.3,245.6,68.4L245.6,68.4
		L245.6,68.4z M238.9,58.3c-0.5,0-0.9,0-1.2-0.1c0,0.5,0,1.2-0.1,1.8c0,0.2,0,0.4,0,0.5c0,0.1,0,0.2,0,0.3h0.2
		c0.2-0.7,0.4-1.2,0.6-1.4c0.3-0.3,0.7-0.4,1.3-0.4h2.4v6.4c0,0.9-0.1,1.6-0.3,2c-0.2,0.4-0.6,0.7-1.1,0.8v0.2
		c0.8-0.1,1.4-0.1,1.8-0.1h0.3v-9.9h-3.1L238.9,58.3L238.9,58.3z"/>
</g>
</svg>
