<svg id="Layer_1" data-name="Layer 1" xmlns="http://www.w3.org/2000/svg" viewBox="0 0 500 500"><defs><style>.cls-1{fill:#39b54a;}.cls-2{fill:#ef6282;}.cls-3{fill:#f76585;}.cls-4{fill:#d24a61;}.cls-5{fill:#9e212a;}.cls-6{fill:#7f2a2d;}.cls-7{fill:#f94159;}.cls-8{fill:#dd2f38;}.cls-9{fill:#ee597b;}.cls-10{fill:#802f38;}.cls-11{fill:#9e2e41;}.cls-12{fill:#db4164;}.cls-13{fill:#ff4e50;}</style></defs><title>raspberry</title><path class="cls-1" d="M108.83,142.73s-22.35-30.41-88.07-.54C65,74.08,129.49,80.06,198.8,129.05,167.73,47.79,251.37,53.77,258.54,0,312.31,58.55,292,94.39,278.85,132.63c40.63-1.19,39.08-109,185.79-34.56-63.07-4.38-77.4,24.51-59.13,42.92,10.54,10.62,26.29,53.77,26.29,53.77l-162.51,98L106.79,169.67Z"/><circle class="cls-2" cx="119.58" cy="312.41" r="66.91"/><circle class="cls-3" cx="175.74" cy="411.58" r="66.91"/><circle class="cls-4" cx="295.83" cy="416.96" r="83.04"/><circle class="cls-5" cx="361.55" cy="378.72" r="83.04"/><circle class="cls-6" cx="401.57" cy="300.46" r="77.67"/><circle class="cls-7" cx="205.61" cy="367.37" r="66.91"/><circle class="cls-8" cx="310.76" cy="367.37" r="76.47"/><path class="cls-9" d="M165.14,195c-39.26-22.17-56.31-52.23-56.31-52.23a66.92,66.92,0,0,0,0,133.83c.61,0,1.21,0,1.82-.05A66.89,66.89,0,0,1,165.14,195Z"/><path class="cls-10" d="M405.51,141a154.49,154.49,0,0,1-15,17.71,77.65,77.65,0,0,1-12.21,135A77.66,77.66,0,1,0,405.51,141Z"/><path class="cls-11" d="M332.69,263.53A82.47,82.47,0,0,1,330,298.65a77.55,77.55,0,0,0,48.3-4.94A77.67,77.67,0,0,1,332.69,263.53Z"/><path class="cls-11" d="M318.5,227.23a78,78,0,0,1-.57-9.22,79,79,0,0,1,.84-11.38c-4.69,1.78-9.56,3.41-14.61,4.85A83.18,83.18,0,0,1,318.5,227.23Z"/><path class="cls-11" d="M424.28,222.79a77.56,77.56,0,0,0-33.81-64.09C376.21,173.43,352,194,318.77,206.63a79,79,0,0,0-.84,11.38,78,78,0,0,0,.57,9.22,82.51,82.51,0,0,1,14.19,36.3,77.67,77.67,0,0,0,45.57,30.18A77.67,77.67,0,0,0,424.28,222.79Z"/><path class="cls-12" d="M199,209.57a176.37,176.37,0,0,1-24-9.43,67.8,67.8,0,0,1,.68,9.51,66.89,66.89,0,0,1-65.09,66.86,66.92,66.92,0,0,0,65.09,51.43,68,68,0,0,0,10.26-.78,83,83,0,0,1,13-117.59Z"/><path class="cls-12" d="M175.74,209.65a67.8,67.8,0,0,0-.68-9.51c-3.45-1.66-6.76-3.4-9.92-5.18a66.89,66.89,0,0,0-54.49,81.55A66.89,66.89,0,0,0,175.74,209.65Z"/><path class="cls-13" d="M268.94,222.79c0-1.73.08-3.44.19-5.13a178.3,178.3,0,0,1-19.3.35,203.26,203.26,0,0,1-25-2.42A66.91,66.91,0,0,1,186,327.16a83,83,0,0,0,144-28.51A77.68,77.68,0,0,1,268.94,222.79Z"/><path class="cls-13" d="M332.69,263.53a77.16,77.16,0,0,1-14.19-36.3,83.18,83.18,0,0,0-14.34-15.75,173.9,173.9,0,0,1-35,6.18c-.11,1.69-.19,3.4-.19,5.13a77.68,77.68,0,0,0,61,75.86,82.47,82.47,0,0,0,2.73-35.12Z"/><path class="cls-13" d="M318.5,227.23a77.16,77.16,0,0,0,14.19,36.3A82.51,82.51,0,0,0,318.5,227.23Z"/><path class="cls-13" d="M242.66,261a66.64,66.64,0,0,0-17.81-45.44,187.13,187.13,0,0,1-25.83-6,83,83,0,0,0-13,117.59A66.94,66.94,0,0,0,242.66,261Z"/><path class="cls-13" d="M405.52,141h-.18l.17,0Z"/></svg>