<svg id="Layer_1" data-name="Layer 1" xmlns="http://www.w3.org/2000/svg" viewBox="0 0 500 500"><defs><style>.cls-1{fill:#ed1c24;}.cls-2{fill:#fbb03b;}.cls-3{fill:#009245;}</style></defs><title>strawberry</title><path class="cls-1" d="M371,127.46c-77.32-13.24-111.91,2.88-111.91,2.88s-31.38-21.72-109.83-21.72S45.43,181,45.43,234.13c0,80.51,77.62,256.63,182.24,265.52S438.51,348,452.09,268.69C461.05,216.34,448.29,140.69,371,127.46Z"/><path class="cls-2" d="M315.67,392.23c16.89,0,0,50.69,0,50.69S298.77,392.23,315.67,392.23Z"/><path class="cls-2" d="M247.28,392.23c16.89,0,0,50.69,0,50.69S230.38,392.23,247.28,392.23Z"/><path class="cls-2" d="M178.89,392.23c16.89,0,0,50.69,0,50.69S162,392.23,178.89,392.23Z"/><path class="cls-2" d="M351.87,307.15c16.9,0,0,50.69,0,50.69S335,307.15,351.87,307.15Z"/><path class="cls-2" d="M283.48,307.15c16.9,0,0,50.69,0,50.69S266.59,307.15,283.48,307.15Z"/><path class="cls-2" d="M215.09,307.15c16.9,0,0,50.69,0,50.69S198.2,307.15,215.09,307.15Z"/><path class="cls-2" d="M146.3,307.15c16.9,0,0,50.69,0,50.69S129.4,307.15,146.3,307.15Z"/><path class="cls-2" d="M246.87,222.06c16.9,0,0,50.69,0,50.69S230,222.06,246.87,222.06Z"/><path class="cls-2" d="M178.48,222.06c16.9,0,0,50.69,0,50.69S161.59,222.06,178.48,222.06Z"/><path class="cls-2" d="M110.09,222.06c16.9,0,0,50.69,0,50.69S93.2,222.06,110.09,222.06Z"/><path class="cls-2" d="M384.46,222.06c16.89,0,0,50.69,0,50.69S367.56,222.06,384.46,222.06Z"/><path class="cls-2" d="M316.07,222.06c16.89,0,0,50.69,0,50.69S299.17,222.06,316.07,222.06Z"/><path class="cls-2" d="M247.68,222.06c16.89,0,0,50.69,0,50.69S230.78,222.06,247.68,222.06Z"/><path class="cls-3" d="M280.77,0l12.07,4.83S254.22,76,271.12,112.24c35-8.45,62.3-5.64,72.41-3.62,12.07,2.41,32.58,9.65,38.62,9.65s41,2.42,49.48-6c-8.45,12.07-19.48,20.77-38.7,21.25,9.82,11.81,17,13.75,17,29.44-54.31-16.9-89.31,0-112.24-29,0,0,42.24,48.28,21.72,66.38s-27.76,0-29-2.41-15.69-21.73-20.52-25.35S253,152.07,253,149.65c-1.2,1.21-10.86,2.42-15.69,6s-10.86,8.44-21.72,8.44-24.14,8.45-26.55,9.66c2.41-8.45,4.83-15.69,15.69-27.76s2.41-15.69,19.31-25.34c-13.28,1.2-13.28,0-20.52,4.82S180.6,140,167.33,140,108.74,118.3,100,120.7c11.51-15.72,44.37-36.22,89-24.15-41,6-89.31,9.65-97.76-32.59,19.31,22.93,42.24,21.73,48.28,21.73s77.24,2.41,101.37,22.93c0,0,8-9.12,12.07-30.17C259.05,47.07,271.45,2.87,280.77,0Z"/></svg>